<svg id="Layer_1" data-name="Layer 1" xmlns="http://www.w3.org/2000/svg" viewBox="0 0 945.57 148.32"><defs><style>.cls-1{fill:#3194ac;}</style></defs><title>MC-LA-logo-teal</title><polygon class="cls-1" points="868.9 122.11 865.65 146.32 892.5 146.32 889.05 122.11 868.9 122.11"/><polygon class="cls-1" points="840.18 115.39 861.78 1.46 813.83 1.46 813.83 115.39 840.18 115.39"/><polygon class="cls-1" points="879.08 32.38 872.16 91.18 885.79 91.18 879.28 32.38 879.08 32.38"/><polygon class="cls-1" points="896.98 1.46 923.63 146.32 945.57 146.32 945.57 1.46 896.98 1.46"/><path d="M82.21,162.74h44.56l9.77,90.33h0.2l11-90.33H190l0.2,144.86H161.36V211l-11,96.64H122.9l-11-97v97H82.21V162.74ZM250.88,298.44a35.73,35.73,0,0,1-13.43,8.14,44.34,44.34,0,0,1-14.24,2.65q-9.77,0-16-4.07a30.66,30.66,0,0,1-9.77-10.07,38,38,0,0,1-4.78-12.92,74.06,74.06,0,0,1-1.22-12.82q0-14.44,5.59-24.72a51,51,0,0,1,14.75-17,79.84,79.84,0,0,1-7.63-14.55,45,45,0,0,1-3.15-17,43.11,43.11,0,0,1,2.34-14.65,33.48,33.48,0,0,1,6.41-11.09,27.72,27.72,0,0,1,9.56-7,29.21,29.21,0,0,1,12-2.44,45.84,45.84,0,0,1,13.22,1.83,27.06,27.06,0,0,1,10.58,5.9,27.74,27.74,0,0,1,7,10.48,42.29,42.29,0,0,1,2.54,15.56,44.16,44.16,0,0,1-1.53,12.21,42.66,42.66,0,0,1-4.07,9.66,53.62,53.62,0,0,1-5.9,8.24q-3.36,3.87-7,7.73l10.58,19.53q1.22-3.86,2.34-7.73a28.44,28.44,0,0,0,1.12-7.93h25.64a93.36,93.36,0,0,1-4.37,24.11q-3.77,11.7-9.87,18.82L287.5,307.8H255.76Zm-24.82-46.39q-0.82.61-2.14,1.83a14.69,14.69,0,0,0-2.54,3.26,27.42,27.42,0,0,0-2.14,4.48,15.56,15.56,0,0,0-.92,5.49,14.87,14.87,0,0,0,2.64,9,8,8,0,0,0,6.71,3.66,15.2,15.2,0,0,0,6.51-1.42,16.37,16.37,0,0,0,4.68-3.05Zm6.71-67.55q-7.32,0-7.32,7.32a20.05,20.05,0,0,0,2.44,9.77l4.27,8.14a13,13,0,0,0,2.14-2.34,36,36,0,0,0,5-9.16,16,16,0,0,0,1-5.59q0-4.88-2.14-6.51A8.65,8.65,0,0,0,232.77,184.51Zm98.88,19.33q0-2.24-.1-5.09a25.64,25.64,0,0,0-.71-5.29,12.36,12.36,0,0,0-1.83-4.17,4.19,4.19,0,0,0-3.66-1.73,6.28,6.28,0,0,0-4.48,1.53q-1.63,1.52-2.44,6.51a100.28,100.28,0,0,0-.92,14.14q-0.1,9.16-.1,24.42,0,15.67.2,25.13a110.79,110.79,0,0,0,1,14.45q0.81,5,2.34,6.61a5.7,5.7,0,0,0,4.37,1.63q3.66,0,5.29-5.39t1.63-18.82v-11h29.3v9q0,25-8.67,39.17T324.43,309q-14.49,0-22.34-5.29a29.39,29.39,0,0,1-11.32-15.06q-3.47-9.76-4-23.6t-0.51-30.92q0-16.68.51-30t4.08-22.69A29,29,0,0,1,302.29,167q7.85-5.08,22.34-5.09,12,0,19.18,3.66a27.94,27.94,0,0,1,11,9.67,34,34,0,0,1,5,13.73,112,112,0,0,1,1.12,16.07v10.38h-29.3v-11.6Zm139.16,79.75-3.26,24H436.43l2.85-15.06a25.78,25.78,0,0,1-13.43,12.72q-8.75,3.56-22.38,3.56a44.45,44.45,0,0,1-14.85-2.24,23.69,23.69,0,0,1-10.48-7.22,32.34,32.34,0,0,1-6.21-13.12,82.43,82.43,0,0,1-2-19.74v-3.87l28.28,0.2v6.51a20.84,20.84,0,0,0,1.73,9A5.8,5.8,0,0,0,405.5,282,7.41,7.41,0,0,0,412,278.1a11.72,11.72,0,0,0,1.63-8.54,19.65,19.65,0,0,0-2.24-6.71,25.78,25.78,0,0,0-3.66-5,33.32,33.32,0,0,0-4.07-3.66q-2-1.53-3.46-2.75a134.33,134.33,0,0,1-11.46-9.26A62.82,62.82,0,0,1,379,231.1,55.29,55.29,0,0,1,372.36,218a45.5,45.5,0,0,1-2.46-15.16,92.47,92.47,0,0,1,.71-12.72,30.81,30.81,0,0,1,2.24-8.34,23.46,23.46,0,0,1,3.66-5.8q2.14-2.44,4.78-5.09a28.51,28.51,0,0,1,9.56-6.41,37.07,37.07,0,0,1,14.65-2.54q11.19,0,18.11,3.26a24.44,24.44,0,0,1,10.58,9.05,35.37,35.37,0,0,1,4.88,13.53,105.81,105.81,0,0,1,1.22,16.48H412.83v-5.7a14.84,14.84,0,0,0-1.61-7.32,5.71,5.71,0,0,0-5.41-2.85,6,6,0,0,0-5.22,2.54,9.85,9.85,0,0,0-1.4,6.82,23.29,23.29,0,0,0,4.05,12.61A48.72,48.72,0,0,0,412,219.6q5.06,4.17,10.83,8.14a61.62,61.62,0,0,1,10.53,9.16,45.15,45.15,0,0,1,7.9,12.21q3.14,7,2.94,17.19v0.41l19.53-104h35.2l23.6,128.58L546.7,162.74h35.2L608.55,307.6H577.43l-3.46-24H553.82l-3.05,24H494.42l-3.46-24H470.81ZM481,193.66l-6.92,58.6H487.7l-6.31-58.6H481Zm83,0-6.92,58.6h13.83l-6.51-58.6H564Zm145.27,10.17q0-2.24-.1-5.09a25.71,25.71,0,0,0-.71-5.29,12.34,12.34,0,0,0-1.83-4.17,4.19,4.19,0,0,0-3.66-1.73,6.28,6.28,0,0,0-4.48,1.53q-1.63,1.52-2.44,6.51a107.92,107.92,0,0,0-1,14.14q-0.21,9.16-.2,24.42,0,15.67.2,25.13a97,97,0,0,0,1.12,14.45q0.92,5,2.44,6.61A5.7,5.7,0,0,0,703,282q3.66,0,5.19-5.39t1.53-18.82v-11H739v9q0,25.23-9,39.17t-28.69,13.94q-14.45,0-22.18-5.29a29,29,0,0,1-11.09-15q-3.36-9.66-3.76-23.5t-0.41-30.92q0-11,.2-20.45a171.19,171.19,0,0,1,1.22-17.6H645.79V307.6H615.68V196.1H595.33V162.74h70.8v28.48a51.77,51.77,0,0,1,3.76-12.72,27.4,27.4,0,0,1,6.82-9.36,29.39,29.39,0,0,1,10.68-5.8,51.14,51.14,0,0,1,15.36-2q12,0,19,3.76a26.94,26.94,0,0,1,10.68,9.87,37,37,0,0,1,4.78,13.94,114.58,114.58,0,0,1,1.12,16.17v10.38H709.27v-11.6Zm79.35-40.89h30.11V307.6H788.61V248H774.17V307.6H744.26V162.94h29.91v51.27h14.45V162.94Zm40.49,0h33.37V307.6H829.1V162.94Z" transform="translate(-82.21 -160.91)"/></svg>